<svg width="120" height="120" fill="none" xmlns="http://www.w3.org/2000/svg"><mask id="a" style="mask-type:alpha" maskUnits="userSpaceOnUse" x="0" y="0" width="120" height="120"><circle cx="60" cy="60" r="60" fill="#D9D9D9"/></mask><g mask="url(#a)"><mask id="b" style="mask-type:alpha" maskUnits="userSpaceOnUse" x="0" y="0" width="120" height="120"><circle cx="60" cy="60" r="60" fill="url(#rvfc8jg4xb)"/></mask><g mask="url(#b)"><circle cx="61" cy="60" r="60" fill="url(#yjh40qlx6d)"/><circle opacity=".6" cx="61" cy="60" r="60" fill="url(#19p9fz9uie)"/><g filter="url(#vl19gi06qf)"><path d="M96.218 42.637L96.757 40l.719 2.637 2.155.608-2.155.609-.719 2.514-.539-2.514L94 43.245l2.218-.608z" fill="url(#cyb5rdfxig)"/></g><g filter="url(#x5chf0gaah)"><path d="M94.045 21.242L94.299 20l.338 1.242 1.016.287-1.016.286L94.3 23l-.254-1.185L93 21.53l1.045-.287z" fill="url(#lzd773wy0i)"/></g><g filter="url(#bfgyotfkaj)"><path d="M68.045 8.242L68.299 7l.338 1.242 1.016.287-1.016.286L68.3 10l-.254-1.185L67 8.53l1.045-.287z" fill="url(#fvl7nn104k)"/></g><g filter="url(#55kfuqbdsl)"><path d="M42.045 5.242L42.299 4l.338 1.242 1.016.287-1.016.286L42.3 7l-.254-1.185L41 5.53l1.045-.287z" fill="url(#gyrdsugbwm)"/></g><g filter="url(#nxi3h3xxen)"><path d="M23.045 27.242L23.299 26l.338 1.242 1.016.287-1.016.286L23.3 29l-.254-1.185L22 27.53l1.045-.287z" fill="url(#lz7fe1shro)"/></g><g filter="url(#8ad8qqd3up)"><path d="M4.045 49.242L4.299 48l.338 1.242 1.016.287-1.016.286L4.3 51l-.254-1.185L3 49.53l1.045-.287z" fill="url(#2j1f0nfjxq)"/></g><g filter="url(#q026s5r7pr)"><path d="M115.045 55.242l.254-1.242.338 1.242 1.016.287-1.016.286-.338 1.185-.254-1.185L114 55.53l1.045-.287z" fill="url(#9bovvfsbvs)"/></g><g filter="url(#sb2pngvvmt)"><circle cx="106.281" cy="39.281" r=".719" fill="url(#msmkrkuzou)"/></g><g filter="url(#rxizxzpdpv)"><circle cx="85.719" cy="22.719" r=".719" fill="url(#6yvszmylbw)"/></g><g filter="url(#m9ih9z17bx)"><circle cx="77.719" cy="7.719" r=".719" fill="url(#e1f7y7jl3y)"/></g><g filter="url(#t6cz6jblrz)"><circle cx="35.719" cy="19.719" r=".719" fill="url(#vrasgcnumA)"/></g><g filter="url(#yqf95cxqiB)"><circle cx="10.719" cy="34.719" r=".719" fill="url(#fyrwn8fdoC)"/></g><g filter="url(#9inpmlhdhD)"><circle cx="27.719" cy="43.719" r=".719" fill="url(#2755c0e7gE)"/></g><path d="M58 115.293C58 128.665 53.65 139 44.103 139s-23.216-1.979-22.03-16.141c1.052-12.589 10.11-14.123 19.658-14.123 9.547 0 16.269-6.814 16.269 6.557z" fill="url(#glelafejnF)"/><path opacity=".829" d="M58 115.293C58 128.665 53.65 139 44.103 139s-23.216-1.979-22.03-16.141c1.052-12.589 10.11-14.123 19.658-14.123 9.547 0 16.269-6.814 16.269 6.557z" fill="url(#5nxl5pluhG)"/><path d="M13.121 90.597C35.85 85.439 51.828 74.459 48.345 59.11 44.862 43.763 36.51 22.55 12.872 29.918-8.142 36.468-7.444 51.623-3.96 66.971c3.483 15.348-5.646 28.784 17.08 23.626z" fill="url(#4gynj932aH)"/><path opacity=".829" d="M13.121 90.597c22.728-5.158 39.172-14.089 36.71-24.94-2.463-10.85-9.353-25.623-33.118-18.813C-4.413 52.897-4.684 63.784-2.22 74.635c2.463 10.85-7.385 21.12 15.342 15.962z" fill="url(#8enfsx25qI)"/><path d="M.69 80.062c11.008-12.103 24.473-16.952 35.35-7.059 10.876 9.892 24.82 25.847 11.81 37.438-11.563 10.304-23.146 2.306-34.022-7.586C2.95 92.963-10.318 92.165.69 80.062z" fill="url(#wpul85373J)"/><path opacity=".829" d="M6.094 76.944c8.88-9.763 17.384-13.338 31.034-3.402 13.112 9.546 24.23 24.678 13.522 33.833-9.52 8.137-20.505.192-31.01-9.362C9.137 88.46-2.784 86.707 6.095 76.944z" fill="url(#ujljc3myfK)"/><path d="M-2.348 95.857c11.008-12.103 25.58-15.944 38.885-3.842 13.307 12.102 30.729 31.222 17.419 42.538-11.832 10.061-25.72-.034-39.027-12.137-13.306-12.102-28.285-14.456-17.277-26.56z" fill="url(#tmdpqiz3oL)"/><path opacity=".829" d="M-2.348 95.857c11.008-12.103 25.58-15.944 38.885-3.842 13.307 12.102 30.729 31.222 17.419 42.538-11.832 10.061-25.72-.034-39.027-12.137-13.306-12.102-28.285-14.456-17.277-26.56z" fill="url(#01qvk8n6kM)"/><path d="M58.306 118.955c5.329 12.263 13.438 20.008 22.194 16.203 8.755-3.805 20.503-11.068 13.772-23.584-5.984-11.126-14.903-8.923-23.659-5.118-8.756 3.806-17.637.235-12.307 12.499z" fill="url(#hkd3vp80bN)"/><path opacity=".829" d="M58.306 118.955c5.329 12.263 13.438 20.008 22.194 16.203 8.755-3.805 20.503-11.068 13.772-23.584-5.984-11.126-14.903-8.923-23.659-5.118-8.756 3.806-17.637.235-12.307 12.499z" fill="url(#qxwqp2xepO)"/><path d="M106.686 83.999c-12.587-4.512-24.053-3.155-27.863 7.477-3.811 10.632-7.404 26.522 6.4 29.981 12.271 3.075 17.331-6.496 21.142-17.128 3.81-10.632 12.908-15.819.321-20.33z" fill="url(#0quhzxng5P)"/><path opacity=".829" d="M106.686 83.999c-12.587-4.512-24.053-3.155-27.863 7.477-3.811 10.632-7.404 26.522 6.4 29.981 12.271 3.075 17.331-6.496 21.142-17.128 3.81-10.632 12.908-15.819.321-20.33z" fill="url(#93o7d37kpQ)"/><path d="M104.468 99.77C81.689 95.603 65.553 84.343 68.781 66.7c3.228-17.645 11.22-42.291 34.945-35.688 21.09 5.87 20.64 23.09 17.413 40.733-3.228 17.645 6.107 32.192-16.671 28.025z" fill="url(#a89zj5eb1R)"/><path opacity=".829" d="M104.468 99.77c-22.779-4.167-39.382-12.87-37.18-24.906 2.201-12.035 8.724-28.65 32.576-22.743 21.203 5.25 21.728 17.148 19.526 29.183-2.202 12.035 7.856 22.633-14.922 18.466z" fill="url(#dfkipsesmS)"/><path d="M129.912 87.861c-16.439-18.073-34.1-27.536-44.976-17.644-10.877 9.893-24.016 26.731-5.257 44.645 16.677 15.926 28.883 8.613 39.759-1.28 10.877-9.892 26.912-7.647 10.474-25.72z" fill="url(#dph6tlvmsT)"/><path opacity=".829" d="M122.535 82.575c-13.26-14.579-24.541-21.207-38.799-11.94-13.697 8.902-23.582 25.39-8.234 39.646 13.642 12.672 25.131 5.279 35.635-4.275 10.504-9.554 24.658-8.852 11.398-23.43z" fill="url(#jaqxvkk9nU)"/><path d="M117.856 99.624c-11.008-12.103-25.054-16.422-37.208-5.368-12.153 11.054-27.926 28.673-14.758 40.12 11.704 10.175 24.5 1.075 36.653-9.979 12.154-11.054 26.321-12.67 15.313-24.773z" fill="url(#myrsz3ym7V)"/><path opacity=".829" d="M117.856 99.624c-11.008-12.103-25.054-16.422-37.208-5.368-12.153 11.054-27.926 28.673-14.758 40.12 11.704 10.175 24.5 1.075 36.653-9.979 12.154-11.054 26.321-12.67 15.313-24.773z" fill="url(#6aofjq0r7W)"/></g></g><circle cx="60" cy="60" r="59" stroke="url(#3fu9qnhaaX)" stroke-width="2"/><path d="M42.13 78s-12.436 4.37-18.569 12.106c-7.803 9.82-9.853 24.856-6.821 25.808 3.032.953 6.7-6.274 12.816-10.518C39.667 98.38 48.4 98.804 48.4 98.804L42.13 78z" fill="url(#npk6717tjY)"/><path opacity=".6" d="M42.13 78s-12.436 4.37-18.569 12.106c-7.803 9.82-9.853 24.856-6.821 25.808 3.032.953 6.7-6.274 12.816-10.518C39.667 98.38 48.4 98.804 48.4 98.804L42.13 78z" fill="url(#w5x10ymfhZ)"/><path opacity=".05" d="M28.4 95c-4.095 4.353-10.5 13-10.5 13s2.328-12.049 7.5-17.5c6.17-6.5 9.679-8.444 14-5 4.581 3.651-3 1-11 9.5z" fill="url(#jggxga8araa)"/><path d="M41.968 78.326l6.095 20.223h-.06c-.263.002-.649.013-1.143.049-.988.07-2.408.239-4.145.627-3.474.777-8.216 2.437-13.302 5.966l.13.188-.13-.188c-2.657 1.843-4.856 4.246-6.725 6.287-.302.329-.595.649-.88.956-1.031 1.11-1.949 2.038-2.79 2.631-.845.595-1.558.814-2.203.611-.28-.088-.537-.349-.742-.838-.204-.486-.339-1.159-.394-1.994-.11-1.666.101-3.917.653-6.456 1.102-5.077 3.552-11.254 7.425-16.127 3.034-3.827 7.64-6.834 11.506-8.888a61.054 61.054 0 014.925-2.339 48.924 48.924 0 011.78-.709z" stroke="url(#df6sj21gpab)" stroke-width=".5"/><path d="M75.67 78s12.438 4.37 18.57 12.106c7.803 9.82 9.853 24.856 6.821 25.808-3.031.953-6.7-6.274-12.816-10.518-10.111-7.016-18.844-6.592-18.844-6.592L75.67 78z" fill="url(#ux0jc50ijac)"/><path opacity=".4" d="M75.67 78s12.438 4.37 18.57 12.106c7.803 9.82 9.853 24.856 6.821 25.808-3.031.953-6.7-6.274-12.816-10.518-10.111-7.016-18.844-6.592-18.844-6.592L75.67 78z" fill="url(#sn3tnq1cvad)"/><path opacity=".05" d="M89.067 95c4.096 4.353 10.5 13 10.5 13s-2.327-12.049-7.5-17.5c-6.168-6.5-9.678-8.444-14-5-4.58 3.651 3 1 11 9.5z" fill="url(#we0s76fy9ae)"/><path d="M94.044 90.26v.001c3.873 4.874 6.323 11.05 7.426 16.127.551 2.539.763 4.79.652 6.456-.055.835-.19 1.508-.394 1.994-.205.489-.463.75-.742.838-.645.203-1.358-.016-2.202-.611-.842-.593-1.76-1.521-2.791-2.631-.285-.307-.578-.627-.88-.956-1.868-2.041-4.068-4.444-6.725-6.287l-.125.18.125-.18c-5.086-3.529-9.828-5.189-13.302-5.966a28.44 28.44 0 00-4.145-.627c-.494-.035-.88-.046-1.143-.049h-.06l6.096-20.224.294.111c.35.134.857.334 1.485.598a61.07 61.07 0 014.925 2.339c3.866 2.054 8.472 5.06 11.506 8.888z" stroke="url(#urlq7ihaaaf)" stroke-width=".5"/><path d="M69.742 110.698c.842-2.603 6.491-20.917 6.491-43.66 0-18.813-10.903-29.484-17.498-34.763-6.596 5.279-17.5 15.95-17.5 34.763 0 22.753 5.65 41.068 6.493 43.66h22.014z" fill="url(#bzl3y0eosag)"/><mask id="c" style="mask-type:alpha" maskUnits="userSpaceOnUse" x="34" y="100" width="51" height="18"><ellipse cx="59.401" cy="109" rx="25" ry="9" fill="#D9D9D9"/></mask><g filter="url(#6c0ovafgmai)" mask="url(#c)"><path d="M46.9 107.5h23.5s.5 3.083 3.5 6 9.5 5 9.5 5H33.9s6.176-1.676 10-5.5c3.5-3.5 3-5.5 3-5.5z" fill="url(#z3ypo0isaaj)"/></g><path d="M29.6 56.788c0 22.354 5.697 37.651 8.884 44.888 1.132 2.569 3.749 4.205 6.556 4.205h27.385c2.807 0 5.424-1.636 6.556-4.204 3.187-7.236 8.883-22.528 8.883-44.89 0-12.666-5.159-24.598-11.63-33.984H41.231C34.745 32.199 29.6 44.12 29.6 56.787z" fill="url(#iksrgrbj5ak)"/><path opacity=".6" d="M29.6 56.788c0 22.354 5.697 37.651 8.885 44.888 1.131 2.569 3.748 4.205 6.555 4.205h27.385c2.807 0 5.424-1.636 6.556-4.204 3.187-7.236 8.883-22.528 8.883-44.89 0-12.666-5.159-24.598-11.63-33.984H41.231C34.746 32.199 29.6 44.12 29.6 56.787z" fill="url(#cmfr3c8t0al)"/><path opacity=".829" d="M29.6 56.788c0 13.2 1.987 23.94 4.27 32.012 3.024 10.69 13.753 17.081 24.862 17.081 11.11 0 21.84-6.39 24.864-17.08 2.282-8.072 4.268-18.81 4.268-32.014 0-12.666-5.159-24.598-11.63-33.984H41.231C34.745 32.199 29.6 44.12 29.6 56.787z" fill="url(#bp3znt58iam)"/><path d="M85.9 46L70.4 33l-14 38 27 11.5L85.9 46z" fill="url(#3ro9bwwnlan)"/><ellipse opacity=".3" cx="74.082" cy="33.704" rx="16.765" ry="20.993" transform="rotate(-17.416 74.082 33.704)" fill="url(#ihl52dm0qao)"/><ellipse opacity=".3" cx="46.882" cy="75.876" rx="16.765" ry="25.004" transform="rotate(-17.416 46.882 75.876)" fill="url(#f9jna0jb5ap)"/><ellipse cx="44.255" cy="36.471" rx="14.294" ry="25.004" transform="rotate(33.565 44.255 36.471)" fill="url(#ere092kvnaq)"/><path opacity=".814" d="M56.4 92.227c0 8.648 2.101 13.786 2.413 14.773l8.176 7c.311-.987 2.412-6.122 2.412-14.773 0-3.812-1.151-7.402-2.596-10.227l-7.81-7c-1.447 2.828-2.594 6.415-2.594 10.227z" fill="url(#mlllzovcaar)"/><path d="M39.103 102.5H78.4a6.947 6.947 0 01-6.03 3.5H44.834a6.444 6.444 0 01-5.732-3.5z" fill="#1B283E"/><path opacity=".6" d="M39.103 102.5H78.4a6.947 6.947 0 01-6.03 3.5H44.834a6.444 6.444 0 01-5.732-3.5z" fill="url(#gimgiy7y8as)"/><path d="M44.835 105.85a6.293 6.293 0 01-5.481-3.2h38.782a6.797 6.797 0 01-5.767 3.2H44.835z" stroke="url(#13dqq9eppat)" stroke-width=".3"/><path d="M40.575 105.631c-.13-.292-.308-.671-.526-1.136-2.488-5.3-10.198-21.722-10.198-47.708 0-12.552 5.08-24.381 11.512-33.734h34.739c6.418 9.342 11.512 21.183 11.512 33.734 0 25.992-7.708 42.405-10.198 47.706-.218.466-.397.845-.526 1.138H40.574z" stroke="url(#f6xboibmwau)" stroke-width=".5"/><path d="M58.733 5C53.67 8.148 47.07 14.487 41.469 22.803h34.527C70.394 14.487 63.794 8.148 58.733 5z" fill="url(#nhmygakxdav)"/><path opacity=".829" d="M58.733 5C53.67 8.148 47.07 14.487 41.469 22.803h34.527C70.394 14.487 63.794 8.148 58.733 5z" fill="url(#ljxhnw27haw)"/><path opacity=".6" d="M58.733 5C53.67 8.148 47.07 14.487 41.469 22.803h34.527C70.394 14.487 63.794 8.148 58.733 5z" fill="url(#pvjg5w897ax)"/><path opacity=".6" d="M58.733 5C53.67 8.148 47.07 14.487 41.469 22.803h34.527C70.394 14.487 63.794 8.148 58.733 5z" fill="url(#dazx9j1z1ay)"/><path opacity=".829" d="M58.733 5C53.67 8.148 47.07 14.487 41.469 22.803h34.527C70.394 14.487 63.794 8.148 58.733 5z" fill="url(#09ruv8991az)"/><path opacity=".829" d="M69 13.45c4.125 5.493 12.504 8.44 4.966 7.609-1.508-.416-10.856 3.025-14.98-2.468-4.125-5.493-5.227-11.097-2.462-12.516 2.766-1.42 8.352 1.882 12.477 7.375z" fill="url(#iaojsc27laA)"/><path opacity=".829" d="M48.35 12.135c-2.809 4.487-2.953 9.46-.322 11.107 2.63 1.647 7.04-.655 9.85-5.142 2.81-4.487 2.954-9.46.323-11.107-2.631-1.647-7.041.655-9.85 5.142z" fill="url(#cafoaba5jaB)"/><path d="M75.524 22.553H41.941c5.48-8.03 11.863-14.155 16.792-17.258 4.928 3.103 11.312 9.228 16.791 17.258z" stroke="url(#7z328538yaC)" stroke-width=".5"/><path d="M58.797 81.754h-.01c-1.883 0-3.132 2.903-3.132 6.792 0 3.9.416 27.047 3.132 27.047h.02c2.716 0 3.132-23.157 3.132-27.047-.01-3.889-1.259-6.792-3.142-6.792z" fill="url(#481hqd0braD)"/><path d="M58.787 82.004h.01c.793 0 1.511.61 2.046 1.79.53 1.17.84 2.83.846 4.753 0 1.94-.104 8.696-.547 14.964-.222 3.135-.527 6.14-.945 8.357-.21 1.111-.445 2.009-.706 2.625-.13.309-.261.531-.387.673-.126.141-.224.177-.297.177h-.01v.25-.25h-.011c-.073 0-.17-.036-.297-.177-.126-.141-.257-.364-.387-.672-.26-.616-.496-1.514-.706-2.625-.418-2.216-.723-5.22-.945-8.354-.443-6.267-.547-13.023-.547-14.969 0-1.922.31-3.582.838-4.751.533-1.18 1.251-1.791 2.044-1.791z" stroke="url(#l0783mbu8aE)" stroke-width=".5"/><path d="M58.797 81.754l-.01 33.85h.01c2.715 0 3.132-23.158 3.132-27.047 0-3.9-1.249-6.803-3.132-6.803z" fill="#1F2D44"/><mask id="d" style="mask-type:alpha" maskUnits="userSpaceOnUse" x="41" y="33" width="36" height="35"><path d="M58.745 33.129c-9.554 0-17.28 7.72-17.28 17.225 0 9.523 7.745 17.224 17.28 17.224 9.553 0 17.279-7.72 17.279-17.224 0-9.524-7.726-17.225-17.28-17.225z" fill="#A5DCF0"/></mask><g mask="url(#d)"><path d="M40.648 53.594c0-10.232 5.47-19.737 18.426-19.94 12.957-.202 18.625 9.708 18.625 19.94 0 10.231-8.191 20.145-18.423 20.145-10.231 0-18.629-9.914-18.629-20.145z" fill="url(#ro327ev9iaG)"/><circle cx="58.871" cy="52.482" r="17.208" transform="rotate(-180 58.871 52.482)" fill="url(#r00lagu8jaH)"/><path opacity=".4" d="M40.203 52.094c0-10.563 7.731-19.126 18.766-19.126 11.035 0 18.766 8.563 18.766 19.126s-7.73 21.645-18.766 21.645c-11.035 0-18.766-11.082-18.766-21.645z" fill="url(#w4wh1v48caI)"/><path fill-rule="evenodd" clip-rule="evenodd" d="M45.622 64.715c1.979.87 4.142 1.35 6.407 1.35 9.44 0 17.092-8.322 17.092-18.587 0-4.382-1.394-8.41-3.726-11.588 6.265 2.757 10.685 9.436 10.685 17.237 0 10.266-7.653 18.588-17.093 18.588-5.41 0-10.233-2.734-13.365-7z" fill="#fff" style="mix-blend-mode:soft-light" opacity=".3"/><g filter="url(#9ezdzbjnoaJ)"><path fill-rule="evenodd" clip-rule="evenodd" d="M61.355 59.328l.002-.004 2.23.598-6.043 19.222-2.23-.598 5.348-17.011-6.103-1.635-.004-2.131.014-.003 3.588-.961-3.598-.965-.004-2.13.013-.003 3.589-.962-3.598-.964-.004-2.131.01-.002 3.592-.962-3.598-.964-.004-2.131.012-.002 3.59-.962-3.598-.965v-2.115l6.263-1.679V31.5h2.31v10.138h-.002l.001.005-3.589.962 3.586.96h.003v2.121l-3.617.97 3.612.968.005.001v2.121l-3.617.97 3.613.968h.004v2.121l-3.617.97 3.615.968.002.001v2.121l-3.617.97 1.841.493z" fill="url(#xp6csirn9aK)"/></g><circle cx="62.516" cy="57.745" r="11.944" transform="rotate(-180 62.516 57.745)" fill="#fff" style="mix-blend-mode:soft-light" opacity=".15"/><circle cx="65.755" cy="60.175" r="7.896" transform="rotate(-180 65.755 60.175)" fill="#fff" style="mix-blend-mode:soft-light" opacity=".15"/><circle cx="59.276" cy="49.243" r="14.779" transform="rotate(-180 59.276 49.243)" fill="#fff" style="mix-blend-mode:soft-light" opacity=".15"/><path opacity=".2" fill-rule="evenodd" clip-rule="evenodd" d="M71.458 44.264a14.234 14.234 0 00-8.68-2.935c-7.895 0-14.296 6.4-14.296 14.296 0 2.13.466 4.15 1.3 5.965a14.273 14.273 0 01-5.615-11.36c0-7.895 6.4-14.296 14.296-14.296 5.766 0 10.735 3.414 12.995 8.33z" fill="url(#4ic7075f0aL)"/></g><path d="M76.57 60.516c5.578-9.824 2.13-22.278-7.725-27.856-9.855-5.56-22.367-2.123-27.945 7.7-5.577 9.825-2.129 22.278 7.726 27.857 9.855 5.579 22.367 2.123 27.944-7.701zm-3.938-2.217c-4.353 7.645-14.095 10.331-21.764 5.992-7.669-4.339-10.363-14.05-6.01-21.695 4.352-7.645 14.094-10.33 21.763-5.992 7.67 4.34 10.364 14.05 6.011 21.695z" fill="#1B283E"/><path opacity=".829" d="M76.57 60.516c5.578-9.824 2.13-22.278-7.725-27.856-9.855-5.56-22.367-2.123-27.945 7.7-5.577 9.825-2.129 22.278 7.726 27.857 9.855 5.579 22.367 2.123 27.944-7.701zm-3.938-2.217c-4.353 7.645-14.095 10.331-21.764 5.992-7.669-4.339-10.363-14.05-6.01-21.695 4.352-7.645 14.094-10.33 21.763-5.992 7.67 4.34 10.364 14.05 6.011 21.695z" fill="url(#b13rrdtqraM)"/><path d="M74.4 51c0 8.284-6.715 15-15 15" stroke="url(#x54ij2n6maN)" stroke-width=".5"/><path d="M40.999 40.417c5.546-9.77 17.99-13.189 27.79-7.659 9.8 5.548 13.23 17.933 7.683 27.702-5.547 9.77-17.99 13.207-27.79 7.659-9.801-5.548-13.23-17.933-7.683-27.702zm9.814 23.973c7.723 4.37 17.534 1.664 21.917-6.035 4.384-7.7 1.67-17.48-6.053-21.85-7.724-4.369-17.534-1.664-21.918 6.035-4.384 7.7-1.67 17.48 6.054 21.85z" stroke="url(#e2qggkfl5aO)" stroke-width=".226"/><ellipse opacity=".3" cx="58" cy="109" rx="10" ry="48" transform="rotate(90 58 109)" fill="url(#pn9dlnbjcaP)"/><path d="M32.821 82.455l-20.5-18.5 7-27.5 25 11" stroke="url(#uxf74mc00aQ)" stroke-width="2.001"/><circle cx="44.294" cy="46.927" r="8.267" transform="rotate(28.093 44.294 46.927)" fill="url(#t2u4iodvgaR)" style="mix-blend-mode:lighten"/><circle opacity=".6" cx="44.294" cy="46.927" r="15.5" transform="rotate(28.093 44.294 46.927)" fill="url(#pvx5r13nraS)"/><circle cx="44.294" cy="46.927" r="2.627" transform="rotate(28.093 44.294 46.927)" fill="url(#db0b7mr6oaT)"/><circle cx="19.321" cy="35.955" r="3" fill="url(#dsnw39u9haU)"/><circle cx="12.321" cy="63.955" r="2" fill="url(#pbt1flwdzaV)"/><defs><radialGradient id="rvfc8jg4xb" cx="0" cy="0" r="1" gradientUnits="userSpaceOnUse" gradientTransform="matrix(0 68.5 -68.5 0 60 -14.5)"><stop stop-color="#263A5E"/><stop offset="1" stop-color="#0C1321"/></radialGradient><radialGradient id="yjh40qlx6d" cx="0" cy="0" r="1" gradientUnits="userSpaceOnUse" gradientTransform="matrix(0 68.5 -68.5 0 61 -14.5)"><stop stop-color="#263A5E"/><stop offset="1" stop-color="#0C1321"/></radialGradient><radialGradient id="19p9fz9uie" cx="0" cy="0" r="1" gradientUnits="userSpaceOnUse" gradientTransform="matrix(79.5 40.99998 -33.65154 65.25119 6 19)"><stop stop-color="#B071BF"/><stop offset="1" stop-color="#8B60EC" stop-opacity=".01"/></radialGradient><radialGradient id="glelafejnF" cx="0" cy="0" r="1" gradientUnits="userSpaceOnUse" gradientTransform="matrix(-28.50042 49.49976 -342.0048 -196.91574 52 105)"><stop stop-color="#AE70C4"/><stop offset="1" stop-color="#73109D" stop-opacity=".17"/></radialGradient><radialGradient id="5nxl5pluhG" cx="0" cy="0" r="1" gradientUnits="userSpaceOnUse" gradientTransform="rotate(116.565 -8.36 72.223) scale(11.1803 20.883)"><stop stop-color="#fff"/><stop offset="1" stop-color="#fff" stop-opacity=".01"/></radialGradient><radialGradient id="4gynj932aH" cx="0" cy="0" r="1" gradientUnits="userSpaceOnUse" gradientTransform="matrix(-.72617 -46.48403 215.18474 -3.3616 6.029 78.746)"><stop stop-color="#AE70C4"/><stop offset="1" stop-color="#73109D" stop-opacity="0"/></radialGradient><radialGradient id="8enfsx25qI" cx="0" cy="0" r="1" gradientUnits="userSpaceOnUse" gradientTransform="matrix(-25.9707 -1.28154 1.74397 -35.3419 44.429 74.475)"><stop stop-color="#fff"/><stop offset="1" stop-color="#fff" stop-opacity=".01"/></radialGradient><radialGradient id="wpul85373J" cx="0" cy="0" r="1" gradientUnits="userSpaceOnUse" gradientTransform="rotate(-48.757 105.001 48.844) scale(39.3603 298.824)"><stop stop-color="#AE70C4"/><stop offset="1" stop-color="#73109D" stop-opacity="0"/></radialGradient><radialGradient id="ujljc3myfK" cx="0" cy="0" r="1" gradientUnits="userSpaceOnUse" gradientTransform="matrix(-52.5 7.99987 -8.49246 -55.73268 65 77)"><stop stop-color="#fff"/><stop offset="1" stop-color="#fff" stop-opacity=".01"/></radialGradient><radialGradient id="tmdpqiz3oL" cx="0" cy="0" r="1" gradientUnits="userSpaceOnUse" gradientTransform="matrix(80.47432 -8.67552 68.8105 638.28766 -2.46 112.772)"><stop stop-color="#AE70C4"/><stop offset="1" stop-color="#73109D" stop-opacity=".17"/></radialGradient><radialGradient id="01qvk8n6kM" cx="0" cy="0" r="1" gradientUnits="userSpaceOnUse" gradientTransform="rotate(169.509 14.41 51.744) scale(27.4591 35.1778)"><stop stop-color="#fff"/><stop offset="1" stop-color="#fff" stop-opacity=".01"/></radialGradient><radialGradient id="hkd3vp80bN" cx="0" cy="0" r="1" gradientUnits="userSpaceOnUse" gradientTransform="matrix(45.86781 34.03886 -235.18205 316.91087 59.706 107.123)"><stop stop-color="#AE70C4"/><stop offset="1" stop-color="#73109D" stop-opacity=".17"/></radialGradient><radialGradient id="qxwqp2xepO" cx="0" cy="0" r="1" gradientUnits="userSpaceOnUse" gradientTransform="matrix(22.99996 7.5 -14.00877 42.96015 57.5 111.5)"><stop stop-color="#fff"/><stop offset="1" stop-color="#fff" stop-opacity=".01"/></radialGradient><radialGradient id="0quhzxng5P" cx="0" cy="0" r="1" gradientUnits="userSpaceOnUse" gradientTransform="rotate(165.458 50.984 54.348) scale(59.8919 445.253)"><stop stop-color="#AE70C4"/><stop offset="1" stop-color="#73109D" stop-opacity=".17"/></radialGradient><radialGradient id="93o7d37kpQ" cx="0" cy="0" r="1" gradientUnits="userSpaceOnUse" gradientTransform="rotate(46.025 -58.377 143.267) scale(16.0282 33.4318)"><stop stop-color="#fff"/><stop offset="1" stop-color="#fff" stop-opacity=".01"/></radialGradient><radialGradient id="a89zj5eb1R" cx="0" cy="0" r="1" gradientUnits="userSpaceOnUse" gradientTransform="rotate(-90.037 98.561 -12.731) scale(52.7133 214.934)"><stop stop-color="#AE70C4"/><stop offset="1" stop-color="#73109D" stop-opacity="0"/></radialGradient><radialGradient id="dfkipsesmS" cx="0" cy="0" r="1" gradientUnits="userSpaceOnUse" gradientTransform="rotate(-6.817 743.008 -569.762) scale(26.0456 38.5963)"><stop stop-color="#fff"/><stop offset="1" stop-color="#fff" stop-opacity=".01"/></radialGradient><radialGradient id="dph6tlvmsT" cx="0" cy="0" r="1" gradientUnits="userSpaceOnUse" gradientTransform="rotate(-131.588 92.139 23.487) scale(58.7711 298.852)"><stop stop-color="#AE70C4"/><stop offset="1" stop-color="#73109D" stop-opacity="0"/></radialGradient><radialGradient id="jaqxvkk9nU" cx="0" cy="0" r="1" gradientUnits="userSpaceOnUse" gradientTransform="rotate(12.9 -276.298 257.378) scale(64.1307 53.7442)"><stop stop-color="#fff"/><stop offset="1" stop-color="#fff" stop-opacity=".01"/></radialGradient><radialGradient id="myrsz3ym7V" cx="0" cy="0" r="1" gradientUnits="userSpaceOnUse" gradientTransform="rotate(-171.287 63.76 53.423) scale(77.9329 609.008)"><stop stop-color="#AE70C4"/><stop offset="1" stop-color="#73109D" stop-opacity=".17"/></radialGradient><radialGradient id="6aofjq0r7W" cx="0" cy="0" r="1" gradientUnits="userSpaceOnUse" gradientTransform="matrix(59.12663 14.06414 -15.19582 63.88429 68.947 104.414)"><stop stop-color="#fff"/><stop offset="1" stop-color="#fff" stop-opacity=".01"/></radialGradient><radialGradient id="w5x10ymfhZ" cx="0" cy="0" r="1" gradientUnits="userSpaceOnUse" gradientTransform="matrix(28.60308 2.51569 -2.99553 34.05882 15.287 91.584)"><stop stop-color="#D472EB"/><stop offset="1" stop-color="#8B60EC" stop-opacity=".01"/></radialGradient><radialGradient id="sn3tnq1cvad" cx="0" cy="0" r="1" gradientUnits="userSpaceOnUse" gradientTransform="matrix(1.00006 -23.99997 21.0787 .87834 101.401 98)"><stop stop-color="#E582FD"/><stop offset="1" stop-color="#8B60EC" stop-opacity=".01"/></radialGradient><radialGradient id="cmfr3c8t0al" cx="0" cy="0" r="1" gradientUnits="userSpaceOnUse" gradientTransform="rotate(6.216 -468.77 297) scale(50.7986 74.5969)"><stop stop-color="#D472EB"/><stop offset="1" stop-color="#8B60EC" stop-opacity=".01"/></radialGradient><radialGradient id="bp3znt58iam" cx="0" cy="0" r="1" gradientUnits="userSpaceOnUse" gradientTransform="matrix(36.68405 15.1051 -35.0351 85.08582 18.541 12.283)"><stop offset=".019" stop-color="#fff"/><stop offset="1" stop-color="#fff" stop-opacity=".01"/></radialGradient><radialGradient id="3ro9bwwnlan" cx="0" cy="0" r="1" gradientUnits="userSpaceOnUse" gradientTransform="matrix(18.1538 0 0 23.7981 67.747 53.11)"><stop stop-color="#0F1827"/><stop offset="1" stop-color="#0F1827" stop-opacity=".01"/></radialGradient><radialGradient id="ihl52dm0qao" cx="0" cy="0" r="1" gradientUnits="userSpaceOnUse" gradientTransform="matrix(15.79558 1.3575 -1.4315 16.6568 74.083 35.016)"><stop stop-color="#9391C0"/><stop offset="1" stop-color="#8F6FBC" stop-opacity="0"/></radialGradient><radialGradient id="f9jna0jb5ap" cx="0" cy="0" r="1" gradientUnits="userSpaceOnUse" gradientTransform="matrix(15.79556 1.61689 -2.02465 19.77904 46.882 77.439)"><stop stop-color="#9391C0"/><stop offset="1" stop-color="#8F6FBC" stop-opacity="0"/></radialGradient><radialGradient id="ere092kvnaq" cx="0" cy="0" r="1" gradientUnits="userSpaceOnUse" gradientTransform="matrix(13.46678 1.6169 -2.36557 19.7023 44.255 38.034)"><stop stop-color="#9391C0"/><stop offset="1" stop-color="#8F6FBC" stop-opacity="0"/></radialGradient><radialGradient id="mlllzovcaar" cx="0" cy="0" r="1" gradientUnits="userSpaceOnUse" gradientTransform="matrix(8 0 0 15.3846 61.4 95)"><stop stop-color="#0F1827"/><stop offset="1" stop-color="#0F1827" stop-opacity=".01"/></radialGradient><radialGradient id="gimgiy7y8as" cx="0" cy="0" r="1" gradientUnits="userSpaceOnUse" gradientTransform="matrix(15.5 0 0 3.0169 58.4 106)"><stop stop-color="#D472EB"/><stop offset="1" stop-color="#8B60EC" stop-opacity=".01"/></radialGradient><radialGradient id="ljxhnw27haw" cx="0" cy="0" r="1" gradientUnits="userSpaceOnUse" gradientTransform="matrix(23.7368 1.61842 -1.9614 28.76731 36.884 12.553)"><stop stop-color="#fff"/><stop offset="1" stop-color="#fff" stop-opacity=".01"/></radialGradient><radialGradient id="pvjg5w897ax" cx="0" cy="0" r="1" gradientUnits="userSpaceOnUse" gradientTransform="matrix(17.99996 .5 -.71553 25.75916 44.4 12)"><stop stop-color="#B071BF"/><stop offset="1" stop-color="#8B60EC" stop-opacity=".01"/></radialGradient><radialGradient id="dazx9j1z1ay" cx="0" cy="0" r="1" gradientUnits="userSpaceOnUse" gradientTransform="matrix(-13.49987 14.00005 -20.03505 -19.31926 68.4 9)"><stop stop-color="#B071BF"/><stop offset="1" stop-color="#8B60EC" stop-opacity=".01"/></radialGradient><radialGradient id="09ruv8991az" cx="0" cy="0" r="1" gradientUnits="userSpaceOnUse" gradientTransform="matrix(12.5 5.5 -8.64189 19.64065 41.4 9.5)"><stop offset=".019" stop-color="#fff"/><stop offset="1" stop-color="#fff" stop-opacity=".01"/></radialGradient><radialGradient id="iaojsc27laA" cx="0" cy="0" r="1" gradientUnits="userSpaceOnUse" gradientTransform="matrix(4.75894 -1.58158 2.72927 8.21235 64.46 16.642)"><stop stop-color="#EBA3FF" stop-opacity=".17"/><stop offset="1" stop-color="#fff" stop-opacity=".01"/></radialGradient><radialGradient id="cafoaba5jaB" cx="0" cy="0" r="1" gradientUnits="userSpaceOnUse" gradientTransform="matrix(-4.40124 -2.04869 2.94542 -6.32772 52.796 15.625)"><stop stop-color="#fff" stop-opacity=".17"/><stop offset="1" stop-color="#fff" stop-opacity=".01"/></radialGradient><radialGradient id="ro327ev9iaG" cx="0" cy="0" r="1" gradientUnits="userSpaceOnUse" gradientTransform="rotate(-90 62.636 3.463) scale(29.1782)"><stop stop-color="#3B6099"/><stop offset="1" stop-color="#101A2A"/></radialGradient><radialGradient id="r00lagu8jaH" cx="0" cy="0" r="1" gradientUnits="userSpaceOnUse" gradientTransform="rotate(90 3.802 55.07) scale(18.4229)"><stop stop-color="#FAB6D2"/><stop offset="1" stop-color="#431F3B" stop-opacity="0"/></radialGradient><radialGradient id="b13rrdtqraM" cx="0" cy="0" r="1" gradientUnits="userSpaceOnUse" gradientTransform="rotate(45.881 -10.197 51.56) scale(24.7981 43.7581)"><stop stop-color="#fff"/><stop offset="1" stop-color="#fff" stop-opacity=".01"/></radialGradient><radialGradient id="pn9dlnbjcaP" cx="0" cy="0" r="1" gradientUnits="userSpaceOnUse" gradientTransform="matrix(.3226 -45.99997 9.76773 .0685 57.677 107)"><stop stop-color="#F950FD"/><stop offset=".524" stop-color="#CF38D1"/><stop offset="1" stop-color="#D267FF" stop-opacity="0"/></radialGradient><radialGradient id="t2u4iodvgaR" cx="0" cy="0" r="1" gradientUnits="userSpaceOnUse" gradientTransform="translate(44.294 46.927) scale(8.26667)"><stop stop-color="#C42E6C"/><stop offset="1" stop-color="#621736" stop-opacity=".01"/></radialGradient><radialGradient id="pvx5r13nraS" cx="0" cy="0" r="1" gradientUnits="userSpaceOnUse" gradientTransform="rotate(15.559 -149.62 185.564) scale(12.4304)"><stop stop-color="#BC5AEC"/><stop offset="1" stop-color="#632F7C" stop-opacity=".01"/></radialGradient><radialGradient id="db0b7mr6oaT" cx="0" cy="0" r="1" gradientUnits="userSpaceOnUse" gradientTransform="translate(41.667 44.3) scale(20.3257)"><stop stop-color="#fff"/><stop offset="1" stop-color="#BF67F0"/></radialGradient><linearGradient id="cyb5rdfxig" x1="91.753" y1="43.184" x2="91.753" y2="54.634" gradientUnits="userSpaceOnUse"><stop stop-color="#fff"/><stop offset="1" stop-color="#C42E6C"/><stop offset="1" stop-color="#C42E6C"/></linearGradient><linearGradient id="lzd773wy0i" x1="91.942" y1="21.5" x2="91.942" y2="26.894" gradientUnits="userSpaceOnUse"><stop stop-color="#fff"/><stop offset="1" stop-color="#C42E6C"/><stop offset="1" stop-color="#C42E6C"/></linearGradient><linearGradient id="fvl7nn104k" x1="65.942" y1="8.5" x2="65.942" y2="13.894" gradientUnits="userSpaceOnUse"><stop stop-color="#fff"/><stop offset="1" stop-color="#C42E6C"/><stop offset="1" stop-color="#C42E6C"/></linearGradient><linearGradient id="gyrdsugbwm" x1="39.942" y1="5.5" x2="39.942" y2="10.894" gradientUnits="userSpaceOnUse"><stop stop-color="#fff"/><stop offset="1" stop-color="#C42E6C"/><stop offset="1" stop-color="#C42E6C"/></linearGradient><linearGradient id="lz7fe1shro" x1="20.942" y1="27.5" x2="20.942" y2="32.894" gradientUnits="userSpaceOnUse"><stop stop-color="#fff"/><stop offset="1" stop-color="#C42E6C"/><stop offset="1" stop-color="#C42E6C"/></linearGradient><linearGradient id="2j1f0nfjxq" x1="1.942" y1="49.5" x2="1.942" y2="54.894" gradientUnits="userSpaceOnUse"><stop stop-color="#fff"/><stop offset="1" stop-color="#C42E6C"/><stop offset="1" stop-color="#C42E6C"/></linearGradient><linearGradient id="9bovvfsbvs" x1="112.942" y1="55.5" x2="112.942" y2="60.894" gradientUnits="userSpaceOnUse"><stop stop-color="#fff"/><stop offset="1" stop-color="#C42E6C"/><stop offset="1" stop-color="#C42E6C"/></linearGradient><linearGradient id="msmkrkuzou" x1="104.987" y1="39.281" x2="104.987" y2="41.867" gradientUnits="userSpaceOnUse"><stop stop-color="#fff"/><stop offset="1" stop-color="#C42E6C"/><stop offset="1" stop-color="#C42E6C"/></linearGradient><linearGradient id="6yvszmylbw" x1="84.426" y1="22.719" x2="84.426" y2="25.306" gradientUnits="userSpaceOnUse"><stop stop-color="#fff"/><stop offset="1" stop-color="#C42E6C"/><stop offset="1" stop-color="#C42E6C"/></linearGradient><linearGradient id="e1f7y7jl3y" x1="76.426" y1="7.719" x2="76.426" y2="10.306" gradientUnits="userSpaceOnUse"><stop stop-color="#fff"/><stop offset="1" stop-color="#C42E6C"/><stop offset="1" stop-color="#C42E6C"/></linearGradient><linearGradient id="vrasgcnumA" x1="34.426" y1="19.719" x2="34.426" y2="22.306" gradientUnits="userSpaceOnUse"><stop stop-color="#fff"/><stop offset="1" stop-color="#C42E6C"/><stop offset="1" stop-color="#C42E6C"/></linearGradient><linearGradient id="fyrwn8fdoC" x1="9.426" y1="34.719" x2="9.426" y2="37.306" gradientUnits="userSpaceOnUse"><stop stop-color="#fff"/><stop offset="1" stop-color="#C42E6C"/><stop offset="1" stop-color="#C42E6C"/></linearGradient><linearGradient id="2755c0e7gE" x1="26.426" y1="43.719" x2="26.426" y2="46.306" gradientUnits="userSpaceOnUse"><stop stop-color="#fff"/><stop offset="1" stop-color="#C42E6C"/><stop offset="1" stop-color="#C42E6C"/></linearGradient><linearGradient id="3fu9qnhaaX" x1="-25.227" y1="22.708" x2="4.038" y2="134.632" gradientUnits="userSpaceOnUse"><stop stop-color="#C47EDD"/><stop offset="1" stop-color="#7850D1"/></linearGradient><linearGradient id="npk6717tjY" x1="2.901" y1="108.5" x2="34.901" y2="122" gradientUnits="userSpaceOnUse"><stop stop-color="#5B79A2"/><stop offset="1" stop-color="#18253C"/></linearGradient><linearGradient id="jggxga8araa" x1="32.401" y1="85.5" x2="17.901" y2="107" gradientUnits="userSpaceOnUse"><stop stop-color="#FCE3EE"/><stop offset="1" stop-color="#FCE3EE" stop-opacity="0"/></linearGradient><linearGradient id="df6sj21gpab" x1="32.401" y1="102" x2="24.901" y2="90.5" gradientUnits="userSpaceOnUse"><stop stop-color="#E4B0FC" stop-opacity="0"/><stop offset="0" stop-color="#FAF1FE" stop-opacity="0"/><stop offset="1" stop-color="#E2ACFC"/></linearGradient><linearGradient id="ux0jc50ijac" x1="118.401" y1="92.5" x2="86.401" y2="103.5" gradientUnits="userSpaceOnUse"><stop stop-color="#5B79A2"/><stop offset="1" stop-color="#18253C"/></linearGradient><linearGradient id="we0s76fy9ae" x1="84.4" y1="87.5" x2="96.4" y2="101.5" gradientUnits="userSpaceOnUse"><stop offset=".022" stop-color="#FCE3EE" stop-opacity="0"/><stop offset=".484" stop-color="#FCE3EE"/><stop offset="1" stop-color="#FCE3EE" stop-opacity="0"/></linearGradient><linearGradient id="urlq7ihaaaf" x1="86.401" y1="102" x2="78.901" y2="90.5" gradientUnits="userSpaceOnUse"><stop stop-color="#E4B0FC" stop-opacity="0"/><stop offset="0" stop-color="#FAF1FE" stop-opacity="0"/><stop offset="1" stop-color="#E2ACFC"/></linearGradient><linearGradient id="bzl3y0eosag" x1="64.517" y1="74.58" x2="59.579" y2="114.868" gradientUnits="userSpaceOnUse"><stop stop-color="#5B79A2"/><stop offset="1" stop-color="#18253C"/></linearGradient><linearGradient id="z3ypo0isaaj" x1="58.401" y1="116.5" x2="58.401" y2="107.5" gradientUnits="userSpaceOnUse"><stop stop-color="#fff"/><stop offset=".524" stop-color="#F4E5FB" stop-opacity=".596"/><stop offset="1" stop-color="#AC6FC6" stop-opacity=".25"/></linearGradient><linearGradient id="iksrgrbj5ak" x1="5.901" y1="69.5" x2="80.4" y2="96.5" gradientUnits="userSpaceOnUse"><stop stop-color="#5B79A2"/><stop offset="1" stop-color="#18253C"/></linearGradient><linearGradient id="13dqq9eppat" x1="59.401" y1="103" x2="59.401" y2="107.5" gradientUnits="userSpaceOnUse"><stop stop-color="#E4B0FC" stop-opacity="0"/><stop offset="0" stop-color="#FAF1FE" stop-opacity="0"/><stop offset="1" stop-color="#E2ACFC"/></linearGradient><linearGradient id="f6xboibmwau" x1="40.901" y1="51" x2="30.388" y2="49.208" gradientUnits="userSpaceOnUse"><stop stop-color="#E4B0FC" stop-opacity="0"/><stop offset="0" stop-color="#FAF1FE" stop-opacity="0"/><stop offset="1" stop-color="#E2ACFC"/></linearGradient><linearGradient id="nhmygakxdav" x1="49.401" y1="11" x2="76.418" y2="11.046" gradientUnits="userSpaceOnUse"><stop stop-color="#698DBE"/><stop offset="1" stop-color="#2D4265"/></linearGradient><linearGradient id="7z328538yaC" x1="53.814" y1="14.198" x2="47.634" y2="19.914" gradientUnits="userSpaceOnUse"><stop stop-color="#E4B0FC" stop-opacity="0"/><stop offset="0" stop-color="#FAF1FE" stop-opacity="0"/><stop offset="1" stop-color="#E2ACFC"/></linearGradient><linearGradient id="481hqd0braD" x1="55.655" y1="115.593" x2="61.939" y2="115.593" gradientUnits="userSpaceOnUse"><stop stop-color="#425C83"/><stop offset="1" stop-color="#1F2D44"/></linearGradient><linearGradient id="l0783mbu8aE" x1="58.401" y1="91.5" x2="54.401" y2="91.5" gradientUnits="userSpaceOnUse"><stop stop-color="#E4B0FC" stop-opacity="0"/><stop offset="0" stop-color="#FAF1FE" stop-opacity="0"/><stop offset="1" stop-color="#E2ACFC"/></linearGradient><linearGradient id="w4wh1v48caI" x1="36.4" y1="18.315" x2="36.376" y2="71.174" gradientUnits="userSpaceOnUse"><stop stop-color="#6B3999"/><stop offset="1" stop-color="#A96ECA"/></linearGradient><linearGradient id="xp6csirn9aK" x1="59.313" y1="37.294" x2="59.313" y2="71.3" gradientUnits="userSpaceOnUse"><stop stop-color="#fff"/><stop offset="1" stop-color="#F9B5D1"/></linearGradient><linearGradient id="4ic7075f0aL" x1="75.4" y1="57.463" x2="55.459" y2="37.322" gradientUnits="userSpaceOnUse"><stop stop-color="#83234B" stop-opacity=".01"/><stop offset="1" stop-color="#FFECF4"/></linearGradient><linearGradient id="x54ij2n6maN" x1="74.401" y1="53" x2="60.439" y2="66.041" gradientUnits="userSpaceOnUse"><stop stop-color="#E4B0FC" stop-opacity="0"/><stop offset="0" stop-color="#FAF1FE" stop-opacity="0"/><stop offset=".487" stop-color="#EECFFD"/><stop offset="1" stop-color="#E2ACFC" stop-opacity="0"/></linearGradient><linearGradient id="e2qggkfl5aO" x1="58.401" y1="48" x2="41.401" y2="31.5" gradientUnits="userSpaceOnUse"><stop stop-color="#E4B0FC" stop-opacity="0"/><stop offset="0" stop-color="#FAF1FE" stop-opacity="0"/><stop offset="1" stop-color="#E2ACFC"/></linearGradient><linearGradient id="uxf74mc00aQ" x1="12.403" y1="57.258" x2="2.962" y2="72.994" gradientUnits="userSpaceOnUse"><stop stop-color="#BF99F7"/><stop offset="1" stop-color="#8B60ED" stop-opacity=".12"/></linearGradient><linearGradient id="dsnw39u9haU" x1="22.321" y1="32.955" x2="16.321" y2="32.955" gradientUnits="userSpaceOnUse"><stop stop-color="#A987F7"/><stop offset="1" stop-color="#B372BD"/></linearGradient><linearGradient id="pbt1flwdzaV" x1="12.933" y1="65.425" x2="13.831" y2="62.404" gradientUnits="userSpaceOnUse"><stop stop-color="#A987F7"/><stop offset="1" stop-color="#B372BD"/></linearGradient><filter id="vl19gi06qf" x="89.62" y="35.62" width="14.391" height="15.128" filterUnits="userSpaceOnUse" color-interpolation-filters="sRGB"><feFlood flood-opacity="0" result="BackgroundImageFix"/><feColorMatrix in="SourceAlpha" values="0 0 0 0 0 0 0 0 0 0 0 0 0 0 0 0 0 0 127 0" result="hardAlpha"/><feOffset/><feGaussianBlur stdDeviation="2.19"/><feColorMatrix values="0 0 0 0 0.951002 0 0 0 0 0.370525 0 0 0 0 0.610455 0 0 0 1 0"/><feBlend in2="BackgroundImageFix" result="effect1_dropShadow_1930_37506"/><feBlend in="SourceGraphic" in2="effect1_dropShadow_1930_37506" result="shape"/></filter><filter id="x5chf0gaah" x="90.937" y="17.937" width="6.779" height="7.127" filterUnits="userSpaceOnUse" color-interpolation-filters="sRGB"><feFlood flood-opacity="0" result="BackgroundImageFix"/><feColorMatrix in="SourceAlpha" values="0 0 0 0 0 0 0 0 0 0 0 0 0 0 0 0 0 0 127 0" result="hardAlpha"/><feOffset/><feGaussianBlur stdDeviation="1.032"/><feColorMatrix values="0 0 0 0 0.951002 0 0 0 0 0.370525 0 0 0 0 0.610455 0 0 0 1 0"/><feBlend in2="BackgroundImageFix" result="effect1_dropShadow_1930_37506"/><feBlend in="SourceGraphic" in2="effect1_dropShadow_1930_37506" result="shape"/></filter><filter id="bfgyotfkaj" x="64.937" y="4.937" width="6.779" height="7.127" filterUnits="userSpaceOnUse" color-interpolation-filters="sRGB"><feFlood flood-opacity="0" result="BackgroundImageFix"/><feColorMatrix in="SourceAlpha" values="0 0 0 0 0 0 0 0 0 0 0 0 0 0 0 0 0 0 127 0" result="hardAlpha"/><feOffset/><feGaussianBlur stdDeviation="1.032"/><feColorMatrix values="0 0 0 0 0.951002 0 0 0 0 0.370525 0 0 0 0 0.610455 0 0 0 1 0"/><feBlend in2="BackgroundImageFix" result="effect1_dropShadow_1930_37506"/><feBlend in="SourceGraphic" in2="effect1_dropShadow_1930_37506" result="shape"/></filter><filter id="55kfuqbdsl" x="38.937" y="1.937" width="6.779" height="7.127" filterUnits="userSpaceOnUse" color-interpolation-filters="sRGB"><feFlood flood-opacity="0" result="BackgroundImageFix"/><feColorMatrix in="SourceAlpha" values="0 0 0 0 0 0 0 0 0 0 0 0 0 0 0 0 0 0 127 0" result="hardAlpha"/><feOffset/><feGaussianBlur stdDeviation="1.032"/><feColorMatrix values="0 0 0 0 0.951002 0 0 0 0 0.370525 0 0 0 0 0.610455 0 0 0 1 0"/><feBlend in2="BackgroundImageFix" result="effect1_dropShadow_1930_37506"/><feBlend in="SourceGraphic" in2="effect1_dropShadow_1930_37506" result="shape"/></filter><filter id="nxi3h3xxen" x="19.937" y="23.937" width="6.779" height="7.127" filterUnits="userSpaceOnUse" color-interpolation-filters="sRGB"><feFlood flood-opacity="0" result="BackgroundImageFix"/><feColorMatrix in="SourceAlpha" values="0 0 0 0 0 0 0 0 0 0 0 0 0 0 0 0 0 0 127 0" result="hardAlpha"/><feOffset/><feGaussianBlur stdDeviation="1.032"/><feColorMatrix values="0 0 0 0 0.951002 0 0 0 0 0.370525 0 0 0 0 0.610455 0 0 0 1 0"/><feBlend in2="BackgroundImageFix" result="effect1_dropShadow_1930_37506"/><feBlend in="SourceGraphic" in2="effect1_dropShadow_1930_37506" result="shape"/></filter><filter id="8ad8qqd3up" x=".937" y="45.937" width="6.779" height="7.127" filterUnits="userSpaceOnUse" color-interpolation-filters="sRGB"><feFlood flood-opacity="0" result="BackgroundImageFix"/><feColorMatrix in="SourceAlpha" values="0 0 0 0 0 0 0 0 0 0 0 0 0 0 0 0 0 0 127 0" result="hardAlpha"/><feOffset/><feGaussianBlur stdDeviation="1.032"/><feColorMatrix values="0 0 0 0 0.951002 0 0 0 0 0.370525 0 0 0 0 0.610455 0 0 0 1 0"/><feBlend in2="BackgroundImageFix" result="effect1_dropShadow_1930_37506"/><feBlend in="SourceGraphic" in2="effect1_dropShadow_1930_37506" result="shape"/></filter><filter id="q026s5r7pr" x="111.937" y="51.937" width="6.779" height="7.127" filterUnits="userSpaceOnUse" color-interpolation-filters="sRGB"><feFlood flood-opacity="0" result="BackgroundImageFix"/><feColorMatrix in="SourceAlpha" values="0 0 0 0 0 0 0 0 0 0 0 0 0 0 0 0 0 0 127 0" result="hardAlpha"/><feOffset/><feGaussianBlur stdDeviation="1.032"/><feColorMatrix values="0 0 0 0 0.951002 0 0 0 0 0.370525 0 0 0 0 0.610455 0 0 0 1 0"/><feBlend in2="BackgroundImageFix" result="effect1_dropShadow_1930_37506"/><feBlend in="SourceGraphic" in2="effect1_dropShadow_1930_37506" result="shape"/></filter><filter id="sb2pngvvmt" x="95.491" y="28.491" width="21.579" height="21.579" filterUnits="userSpaceOnUse" color-interpolation-filters="sRGB"><feFlood flood-opacity="0" result="BackgroundImageFix"/><feColorMatrix in="SourceAlpha" values="0 0 0 0 0 0 0 0 0 0 0 0 0 0 0 0 0 0 127 0" result="hardAlpha"/><feOffset/><feGaussianBlur stdDeviation="5.035"/><feColorMatrix values="0 0 0 0 0.951002 0 0 0 0 0.370525 0 0 0 0 0.610455 0 0 0 1 0"/><feBlend in2="BackgroundImageFix" result="effect1_dropShadow_1930_37506"/><feBlend in="SourceGraphic" in2="effect1_dropShadow_1930_37506" result="shape"/></filter><filter id="rxizxzpdpv" x="74.93" y="11.93" width="21.579" height="21.579" filterUnits="userSpaceOnUse" color-interpolation-filters="sRGB"><feFlood flood-opacity="0" result="BackgroundImageFix"/><feColorMatrix in="SourceAlpha" values="0 0 0 0 0 0 0 0 0 0 0 0 0 0 0 0 0 0 127 0" result="hardAlpha"/><feOffset/><feGaussianBlur stdDeviation="5.035"/><feColorMatrix values="0 0 0 0 0.951002 0 0 0 0 0.370525 0 0 0 0 0.610455 0 0 0 1 0"/><feBlend in2="BackgroundImageFix" result="effect1_dropShadow_1930_37506"/><feBlend in="SourceGraphic" in2="effect1_dropShadow_1930_37506" result="shape"/></filter><filter id="m9ih9z17bx" x="66.93" y="-3.07" width="21.579" height="21.579" filterUnits="userSpaceOnUse" color-interpolation-filters="sRGB"><feFlood flood-opacity="0" result="BackgroundImageFix"/><feColorMatrix in="SourceAlpha" values="0 0 0 0 0 0 0 0 0 0 0 0 0 0 0 0 0 0 127 0" result="hardAlpha"/><feOffset/><feGaussianBlur stdDeviation="5.035"/><feColorMatrix values="0 0 0 0 0.951002 0 0 0 0 0.370525 0 0 0 0 0.610455 0 0 0 1 0"/><feBlend in2="BackgroundImageFix" result="effect1_dropShadow_1930_37506"/><feBlend in="SourceGraphic" in2="effect1_dropShadow_1930_37506" result="shape"/></filter><filter id="t6cz6jblrz" x="24.93" y="8.93" width="21.579" height="21.579" filterUnits="userSpaceOnUse" color-interpolation-filters="sRGB"><feFlood flood-opacity="0" result="BackgroundImageFix"/><feColorMatrix in="SourceAlpha" values="0 0 0 0 0 0 0 0 0 0 0 0 0 0 0 0 0 0 127 0" result="hardAlpha"/><feOffset/><feGaussianBlur stdDeviation="5.035"/><feColorMatrix values="0 0 0 0 0.951002 0 0 0 0 0.370525 0 0 0 0 0.610455 0 0 0 1 0"/><feBlend in2="BackgroundImageFix" result="effect1_dropShadow_1930_37506"/><feBlend in="SourceGraphic" in2="effect1_dropShadow_1930_37506" result="shape"/></filter><filter id="yqf95cxqiB" x="-.07" y="23.93" width="21.579" height="21.579" filterUnits="userSpaceOnUse" color-interpolation-filters="sRGB"><feFlood flood-opacity="0" result="BackgroundImageFix"/><feColorMatrix in="SourceAlpha" values="0 0 0 0 0 0 0 0 0 0 0 0 0 0 0 0 0 0 127 0" result="hardAlpha"/><feOffset/><feGaussianBlur stdDeviation="5.035"/><feColorMatrix values="0 0 0 0 0.951002 0 0 0 0 0.370525 0 0 0 0 0.610455 0 0 0 1 0"/><feBlend in2="BackgroundImageFix" result="effect1_dropShadow_1930_37506"/><feBlend in="SourceGraphic" in2="effect1_dropShadow_1930_37506" result="shape"/></filter><filter id="9inpmlhdhD" x="16.93" y="32.93" width="21.579" height="21.579" filterUnits="userSpaceOnUse" color-interpolation-filters="sRGB"><feFlood flood-opacity="0" result="BackgroundImageFix"/><feColorMatrix in="SourceAlpha" values="0 0 0 0 0 0 0 0 0 0 0 0 0 0 0 0 0 0 127 0" result="hardAlpha"/><feOffset/><feGaussianBlur stdDeviation="5.035"/><feColorMatrix values="0 0 0 0 0.951002 0 0 0 0 0.370525 0 0 0 0 0.610455 0 0 0 1 0"/><feBlend in2="BackgroundImageFix" result="effect1_dropShadow_1930_37506"/><feBlend in="SourceGraphic" in2="effect1_dropShadow_1930_37506" result="shape"/></filter><filter id="6c0ovafgmai" x="18.901" y="92.5" width="79.5" height="41" filterUnits="userSpaceOnUse" color-interpolation-filters="sRGB"><feFlood flood-opacity="0" result="BackgroundImageFix"/><feColorMatrix in="SourceAlpha" values="0 0 0 0 0 0 0 0 0 0 0 0 0 0 0 0 0 0 127 0" result="hardAlpha"/><feOffset/><feGaussianBlur stdDeviation="7.5"/><feColorMatrix values="0 0 0 0 0.951002 0 0 0 0 0.370525 0 0 0 0 0.610455 0 0 0 1 0"/><feBlend in2="BackgroundImageFix" result="effect1_dropShadow_1930_37506"/><feBlend in="SourceGraphic" in2="effect1_dropShadow_1930_37506" result="shape"/></filter><filter id="9ezdzbjnoaJ" x="49.094" y="26.039" width="19.954" height="58.565" filterUnits="userSpaceOnUse" color-interpolation-filters="sRGB"><feFlood flood-opacity="0" result="BackgroundImageFix"/><feColorMatrix in="SourceAlpha" values="0 0 0 0 0 0 0 0 0 0 0 0 0 0 0 0 0 0 127 0" result="hardAlpha"/><feOffset/><feGaussianBlur stdDeviation="2.73"/><feColorMatrix values="0 0 0 0 0.951002 0 0 0 0 0.370525 0 0 0 0 0.610455 0 0 0 1 0"/><feBlend in2="BackgroundImageFix" result="effect1_dropShadow_1930_37506"/><feBlend in="SourceGraphic" in2="effect1_dropShadow_1930_37506" result="shape"/></filter></defs></svg>