<svg width="628" height="350" fill="none" xmlns="http://www.w3.org/2000/svg"><path opacity=".4" transform="rotate(-180 352.595 69.514)" fill="url(#wntebplaqa)" d="M352.595 69.514H705.19v26.932H352.595z"/><rect width="106.533" height="29.735" rx="14.867" transform="scale(1 -1) rotate(-29.86 -79.42 -921.832)" fill="url(#x29g4t9hfb)"/><rect width="203.431" height="32.875" rx="16.438" transform="scale(1 -1) rotate(-29.86 -3.953 -860.603)" fill="url(#pzyyhcugtc)"/><rect width="196.45" height="29.735" rx="14.867" transform="scale(1 -1) rotate(-29.86 131.834 -816.441)" fill="url(#029hz2vbud)"/><rect width="156.029" height="28.744" rx="14.372" transform="scale(1 -1) rotate(-29.86 71.197 -827.347)" fill="url(#myqjhja2pe)"/><path fill-rule="evenodd" clip-rule="evenodd" d="M268.656 71.07c7.937-.02 14.356-6.47 14.336-14.408-.019-7.937-6.469-14.356-14.406-14.337l-19.595.048c-7.937.02-14.356 6.47-14.336 14.407.019 7.938 6.469 14.356 14.407 14.337l19.594-.048zm136.957-.336c7.938-.02 14.356-6.47 14.337-14.407-.019-7.937-6.469-14.356-14.407-14.337l-92.101.225c-7.937.02-14.356 6.47-14.336 14.407.019 7.938 6.469 14.357 14.407 14.337l92.1-.225z" fill="url(#qa6mvuk9tf)"/><path fill-rule="evenodd" clip-rule="evenodd" d="M508.783 347.457l-283.74-75.285a26.71 26.71 0 01-1.49-.442 26.933 26.933 0 01-15.176-7.472c-10.35-10.146-10.516-26.761-.37-37.112.092-.094.186-.188.28-.281l210.696-208.53c7.079-7.007 17.066-9.31 26.057-6.9 9.03 2.349 16.589 9.31 19.27 18.926l79.599 285.555c3.892 13.961-4.271 28.434-18.233 32.326l-.384.104a26.93 26.93 0 01-16.509-.889zm-28.683-62.02l-55.193-198L278.813 232.03 480.1 285.437z" fill="url(#0g7ipp1sqg)"/><defs><linearGradient id="wntebplaqa" x1="707.011" y1="84.059" x2="47.658" y2="78.433" gradientUnits="userSpaceOnUse"><stop stop-color="#4BDEFF" stop-opacity="0"/><stop offset="1" stop-color="#0487EB"/></linearGradient><linearGradient id="x29g4t9hfb" x1="106.533" y1="16.519" x2="1.209" y2="16.519" gradientUnits="userSpaceOnUse"><stop stop-color="#8B60ED"/><stop offset="1" stop-color="#B372BD"/></linearGradient><linearGradient id="pzyyhcugtc" x1="2.308" y1="14.611" x2="203.431" y2="14.611" gradientUnits="userSpaceOnUse"><stop stop-color="#6EDCC4"/><stop offset="1" stop-color="#1AAB8B"/></linearGradient><linearGradient id="029hz2vbud" x1="80.526" y1="17.879" x2="101.901" y2="-58.133" gradientUnits="userSpaceOnUse"><stop stop-color="#F44881"/><stop offset="1" stop-color="#EC454F"/></linearGradient><linearGradient id="myqjhja2pe" x1="156.029" y1="14.372" x2="53.504" y2="-59.635" gradientUnits="userSpaceOnUse"><stop stop-color="#F19A1A"/><stop offset="1" stop-color="#FFC73C"/></linearGradient><linearGradient id="qa6mvuk9tf" x1="432.996" y1="61.267" x2="356.169" y2="156.839" gradientUnits="userSpaceOnUse"><stop stop-color="#4BDEFF"/><stop offset="1" stop-color="#0487EB"/></linearGradient><linearGradient id="0g7ipp1sqg" x1="370.921" y1="36.023" x2="449.029" y2="313.405" gradientUnits="userSpaceOnUse"><stop stop-color="#4BDEFF"/><stop offset="1" stop-color="#0487EB"/></linearGradient></defs></svg>